HIERARCHY
ROOT Hips
{
	OFFSET 0.000000 0.000000 0.000000
	CHANNELS 6 Xposition Yposition Zposition Zrotation Yrotation Xrotation 
	JOINT LHipJoint
	{
		OFFSET 0.000000 0.000000 0.000000
		CHANNELS 3 Zrotation Yrotation Xrotation
		JOINT LeftUpLeg
		{
			OFFSET 1.363060 -1.794630 0.839290
			CHANNELS 3 Zrotation Yrotation Xrotation
			JOINT LeftLeg
			{
				OFFSET 2.448110 -6.726130 0.000000
				CHANNELS 3 Zrotation Yrotation Xrotation
				JOINT LeftFoot
				{
					OFFSET 2.562200 -7.039590 0.000000
					CHANNELS 3 Zrotation Yrotation Xrotation
					JOINT LeftToeBase
					{
						OFFSET 0.157640 -0.433110 2.322550
						CHANNELS 3 Zrotation Yrotation Xrotation
						End Site
						{
							OFFSET 0.000000 0.000000 0.000000
						}
					}
				}
			}
		}
	}
	JOINT RHipJoint
	{
		OFFSET 0.000000 0.000000 0.000000
		CHANNELS 3 Zrotation Yrotation Xrotation
		JOINT RightUpLeg
		{
			OFFSET -1.305520 -1.794630 0.839290
			CHANNELS 3 Zrotation Yrotation Xrotation
			JOINT RightLeg
			{
				OFFSET -2.542530 -6.985550 0.000000
				CHANNELS 3 Zrotation Yrotation Xrotation
				JOINT RightFoot
				{
					OFFSET -2.568260 -7.056230 0.000000
					CHANNELS 3 Zrotation Yrotation Xrotation
					JOINT RightToeBase
					{
						OFFSET -0.164730 -0.452590 2.363150
						CHANNELS 3 Zrotation Yrotation Xrotation
						End Site
						{
							OFFSET 0.000000 0.000000 0.000000
						}
					}
				}
			}
		}
	}
	JOINT LowerBack
	{
		OFFSET 0.000000 0.000000 0.000000
		CHANNELS 3 Zrotation Yrotation Xrotation
		JOINT Spine
		{
			OFFSET 0.028270 2.035590 -0.193380
			CHANNELS 3 Zrotation Yrotation Xrotation
			JOINT Spine1
			{
				OFFSET 0.056720 2.048850 -0.042750
				CHANNELS 3 Zrotation Yrotation Xrotation
				JOINT Neck
				{
					OFFSET 0.000000 0.000000 0.000000
					CHANNELS 3 Zrotation Yrotation Xrotation
					JOINT Neck1
					{
						OFFSET -0.054170 1.746240 0.172020
						CHANNELS 3 Zrotation Yrotation Xrotation
						JOINT Head
						{
							OFFSET 0.104070 1.761360 -0.123970
							CHANNELS 3 Zrotation Yrotation Xrotation
							End Site
							{
								OFFSET 0.000000 0.000000 0.000000
							}
						}
					}
				}
				JOINT LeftShoulder
				{
					OFFSET 0.000000 0.000000 0.000000
					CHANNELS 3 Zrotation Yrotation Xrotation
					JOINT LeftArm
					{
						OFFSET 3.362410 1.200890 -0.311210
						CHANNELS 3 Zrotation Yrotation Xrotation
						JOINT LeftForeArm
						{
							OFFSET 4.983000 -0.000000 -0.000000
							CHANNELS 3 Zrotation Yrotation Xrotation
							JOINT LeftHand
							{
								OFFSET 3.483560 -0.000000 -0.000000
								CHANNELS 3 Zrotation Yrotation Xrotation
								JOINT LeftFingerBase
								{
									OFFSET 0.000000 0.000000 0.000000
									CHANNELS 3 Zrotation Yrotation Xrotation
									JOINT LeftHandIndex1
									{
										OFFSET 0.715260 -0.000000 -0.000000
										CHANNELS 3 Zrotation Yrotation Xrotation
										End Site
										{
											OFFSET 0.000000 0.000000 0.000000
										}
									}
								}
								JOINT LThumb
								{
									OFFSET 0.000000 0.000000 0.000000
									CHANNELS 3 Zrotation Yrotation Xrotation
									End Site
									{
										OFFSET 0.000000 0.000000 0.000000
									}
								}
							}
						}
					}
				}
				JOINT RightShoulder
				{
					OFFSET 0.000000 0.000000 0.000000
					CHANNELS 3 Zrotation Yrotation Xrotation
					JOINT RightArm
					{
						OFFSET -3.136600 1.374050 -0.404650
						CHANNELS 3 Zrotation Yrotation Xrotation
						JOINT RightForeArm
						{
							OFFSET -5.241900 -0.000000 -0.000000
							CHANNELS 3 Zrotation Yrotation Xrotation
							JOINT RightHand
							{
								OFFSET -3.444170 -0.000000 -0.000000
								CHANNELS 3 Zrotation Yrotation Xrotation
								JOINT RightFingerBase
								{
									OFFSET 0.000000 0.000000 0.000000
									CHANNELS 3 Zrotation Yrotation Xrotation
									JOINT RightHandIndex1
									{
										OFFSET -0.622530 -0.000000 -0.000000
										CHANNELS 3 Zrotation Yrotation Xrotation
										End Site
										{
											OFFSET 0.000000 0.000000 0.000000
										}
									}
								}
								JOINT RThumb
								{
									OFFSET 0.000000 0.000000 0.000000
									CHANNELS 3 Zrotation Yrotation Xrotation
									End Site
									{
										OFFSET 0.000000 0.000000 0.000000
									}
								}
							}
						}
					}
				}
			}
		}
	}
}
MOTION
Frames: 9
Frame Time: 0.008333
3.482646 17.148751 1.910790 -146.876436 -79.701414 155.528972 -10.899741 -0.084805 3.203401 -0.461845 -0.412560 -38.260429 0.267247 1.747661 45.684593 3.235458 17.968714 -8.397184 0.169500 -0.000000 -22.597999 6.923621 -2.184865 4.177459 21.296157 7.155464 -1.333731 4.495235 2.154366 -2.209371 0.315350 4.114489 -7.137911 -179.997900 -0.000000 -5.876300 5.975586 0.188801 -8.411610 0.006457 -0.835024 -4.550244 -7.889161 -0.848482 0.085328 10.335662 -8.043783 -6.630784 -4.773185 -0.398711 0.315586 0.000000 0.000000 0.000000 -2.835756 9.743391 1.183845 -61.690980 7.990987 14.659488 -2.799623 -27.045017 0.004334 6.433935 2.027107 0.118596 -0.067581 -0.053031 0.000000 0.000000 0.000000 0.000000 0.000000 0.000000 0.000000 21.160235 -2.153305 -1.152887 64.406138 6.801662 10.545269 1.042721 61.189491 -0.015546 -6.188670 6.390473 -0.363600 0.085882 -0.262081 0.000000 0.000000 0.000000 0.000000 0.000000 0.000000 0.000000 
3.316890 17.136476 1.891304 -148.361725 -79.657398 157.149843 -10.825097 -0.157928 3.331201 -0.656585 -0.462911 -38.940871 0.184625 1.617444 43.573626 3.176323 17.477719 -7.747868 0.399800 0.000000 -23.190300 6.937779 -2.192845 4.127497 21.069400 6.995437 -0.586665 4.470372 2.224551 -2.650704 0.332687 4.381409 -7.485037 -179.992700 0.000000 -6.683900 5.620995 0.493474 -8.516542 -0.099937 -0.501546 -4.577909 -7.932943 -0.515204 0.084978 10.408950 -7.608385 -6.563870 -4.748947 -0.397388 0.330856 0.000000 0.000000 0.000000 -2.936762 10.608953 1.162967 -60.339023 8.528733 14.996269 -2.852397 -27.692725 0.004710 6.101971 2.152063 0.119915 -0.073032 -0.062389 0.000000 0.000000 0.000000 0.000000 0.000000 0.000000 0.000000 21.094643 -1.439013 -1.176826 64.100337 7.418475 11.784933 1.008590 62.037025 -0.015459 -5.895218 6.282603 -0.340869 0.081754 -0.268793 -0.000000 0.000000 0.000000 0.000000 0.000000 0.000000 0.000000 
3.151171 17.122049 1.872643 -149.649685 -79.663232 158.536660 -10.755796 -0.214273 3.447126 -0.907170 -0.477230 -39.544080 0.092658 1.486407 41.385543 3.081331 16.827273 -6.991427 0.641200 -0.000000 -23.890600 6.957583 -2.209503 4.056388 20.844979 6.744186 0.180764 4.443506 2.287465 -3.073250 0.350875 4.660288 -7.832993 -179.990700 0.000001 -7.381700 5.268901 0.770785 -8.591301 -0.202759 -0.193500 -4.598420 -7.972667 -0.207240 0.090035 10.478689 -7.201986 -6.508675 -4.719122 -0.395393 0.342906 0.000000 0.000000 0.000000 -3.041326 11.462878 1.142750 -58.988822 9.018358 15.262793 -2.902951 -28.347104 0.005015 5.805055 2.237065 0.119035 -0.078537 -0.071397 -0.000000 0.000000 0.000000 0.000000 0.000000 0.000000 0.000000 21.007064 -0.775752 -1.197602 63.812884 8.098417 12.913491 0.978556 62.819231 -0.015242 -5.581670 6.146430 -0.316146 0.077329 -0.275105 -0.000000 0.000000 0.000000 0.000000 0.000000 0.000000 0.000000 
2.985651 17.105343 1.855081 -150.742206 -79.717241 159.688278 -10.691802 -0.254586 3.550104 -1.209826 -0.465383 -40.060315 -0.011819 1.354937 39.126501 2.950286 16.019508 -6.162388 0.873201 -0.000000 -24.681400 6.983192 -2.234222 3.960341 20.625604 6.397638 0.967550 4.415648 2.340744 -3.461804 0.370880 4.957289 -8.180862 -179.992199 0.000000 -7.914600 4.925770 1.022480 -8.628729 -0.300673 0.090532 -4.610537 -8.007325 0.076967 0.099663 10.542273 -6.822991 -6.465771 -4.683563 -0.392699 0.351559 0.000000 0.000000 0.000000 -3.145661 12.301022 1.125202 -57.661019 9.455903 15.434113 -2.951635 -28.990659 0.005273 5.553041 2.289080 0.117055 -0.084043 -0.079891 -0.000000 0.000000 0.000000 0.000000 0.000000 0.000000 0.000000 20.893110 -0.160866 -1.214401 63.543026 8.837216 13.934716 0.952363 63.535212 -0.014906 -5.255748 5.989258 -0.290533 0.072687 -0.281019 -0.000000 0.000000 0.000000 0.000000 0.000000 0.000000 0.000000 
2.820518 17.086348 1.838622 -151.678703 -79.817166 160.636902 -10.632472 -0.279393 3.638126 -1.563872 -0.438619 -40.471350 -0.131945 1.223140 36.802120 2.784968 15.066439 -5.294947 1.077200 -0.000001 -25.530800 7.016089 -2.265550 3.832784 20.405633 5.945190 1.777381 4.387263 2.381621 -3.798198 0.394546 5.286867 -8.532099 -179.997800 -0.000000 -8.248200 4.591001 1.250651 -8.617967 -0.393923 0.353215 -4.612982 -8.036465 0.340077 0.110315 10.597828 -6.467034 -6.432737 -4.642679 -0.389351 0.357433 0.000000 0.000000 0.000000 -3.244939 13.108806 1.112690 -56.373456 9.852775 15.485204 -2.998735 -29.616673 0.005512 5.354085 2.315519 0.114775 -0.089491 -0.087760 -0.000000 0.000000 0.000000 0.000000 0.000000 0.000000 0.000000 20.750714 0.411345 -1.225656 63.291482 9.625212 14.847457 0.929800 64.186376 -0.014463 -4.922505 5.819438 -0.264828 0.067873 -0.286585 -0.000000 0.000000 0.000000 0.000000 0.000000 0.000000 0.000000 
2.655753 17.064891 1.823809 -152.398554 -79.949076 161.328640 -10.578801 -0.293559 3.715007 -1.944581 -0.400869 -40.789963 -0.267086 1.090373 34.432957 2.588644 13.981448 -4.415767 1.239900 0.000000 -26.450500 7.047323 -2.305298 3.674168 20.211370 5.430074 2.478422 4.364346 2.383256 -3.803623 0.406500 5.632711 -9.029403 179.991600 0.000000 -8.366500 4.285564 1.461072 -8.563231 -0.477933 0.597604 -4.605858 -8.058123 0.585385 0.124471 10.641124 -6.133059 -6.412367 -4.595938 -0.385303 0.359813 0.000000 0.000000 0.000000 -3.336305 13.900683 1.105673 -55.151696 10.190720 15.403435 -3.044857 -30.200642 0.005731 5.209681 2.326420 0.112695 -0.094889 -0.094766 -0.000000 0.000000 0.000000 0.000000 0.000000 0.000000 0.000000 20.572431 0.945354 -1.233308 63.048446 10.455464 15.667589 0.909488 64.781640 -0.013975 -4.601316 5.643143 -0.240431 0.063106 -0.291829 -0.000000 0.000000 0.000000 0.000000 0.000000 0.000000 0.000000 
2.491378 17.041012 1.810517 -152.952210 -80.108096 161.809797 -10.529495 -0.298838 3.779262 -2.350698 -0.361312 -41.002052 -0.418193 0.956159 32.029548 2.366872 12.791358 -3.550097 1.352500 0.000000 -27.419800 7.078533 -2.351054 3.479506 20.031940 4.846326 3.077552 4.348041 2.345061 -3.469108 0.406045 6.008037 -9.676088 179.975101 -0.000000 -8.291599 4.002706 1.656430 -8.456515 -0.554217 0.827406 -4.586757 -8.071800 0.816775 0.145378 10.674001 -5.826193 -6.408555 -4.543460 -0.380519 0.357515 0.000000 0.000000 0.000000 -3.410316 14.688996 1.104407 -54.012486 10.445521 15.191679 -3.090821 -30.720248 0.005944 5.123888 2.326758 0.111316 -0.100276 -0.100735 -0.000000 0.000000 0.000000 0.000000 0.000000 0.000000 0.000000 20.362623 1.437801 -1.238131 62.808940 11.331195 16.407002 0.891071 65.323092 -0.013486 -4.302231 5.468423 -0.218141 0.058534 -0.296806 -0.000000 0.000000 0.000000 0.000000 0.000000 0.000000 0.000000 
2.327272 17.014712 1.798803 -153.319918 -80.287781 162.073112 -10.484915 -0.302306 3.829772 -2.767872 -0.321498 -41.123112 -0.583951 0.819919 29.613006 2.126277 11.522165 -2.719290 1.411500 -0.000001 -28.411500 7.110859 -2.398006 3.267081 19.862138 4.217328 3.750124 4.334003 2.308204 -3.196907 0.408938 6.389879 -10.263742 179.952400 0.000000 -8.072100 3.750219 1.840814 -8.310035 -0.621794 1.045251 -4.559729 -8.077665 1.036740 0.166197 10.692839 -5.535530 -6.413003 -4.486339 -0.375217 0.352974 0.000000 0.000000 0.000000 -3.467211 15.445084 1.109918 -52.965404 10.665453 14.823293 -3.136115 -31.196592 0.006159 5.092179 2.323691 0.110836 -0.105579 -0.105711 -0.000000 0.000000 0.000000 0.000000 0.000000 0.000000 0.000000 20.117144 1.902069 -1.239028 62.572120 12.224177 17.063812 0.873909 65.823406 -0.013022 -4.029025 5.303258 -0.198455 0.054180 -0.301636 -0.000000 0.000000 0.000000 0.000000 0.000000 0.000000 0.000000 
2.162975 16.986017 1.788737 -153.463434 -80.477469 162.096362 -10.444764 -0.308834 3.869945 -3.182232 -0.276467 -41.181792 -0.761671 0.680848 27.206220 1.874155 10.201113 -1.936962 1.418900 -0.000000 -29.430300 7.139654 -2.445753 3.048581 19.714648 3.583258 4.482633 4.322933 2.274626 -2.987300 0.413046 6.754162 -10.799110 179.923600 0.000000 -7.783800 3.536383 2.018859 -8.139270 -0.679153 1.253995 -4.526558 -8.075207 1.248277 0.191727 10.698213 -5.265878 -6.429304 -4.424610 -0.369412 0.345295 0.000000 0.000000 0.000000 -3.502062 16.186891 1.120450 -52.022923 10.832654 14.305997 -3.180929 -31.615440 0.006366 5.109106 2.320236 0.111355 -0.110847 -0.109578 -0.000000 0.000000 0.000000 0.000000 0.000000 0.000000 0.000000 19.837879 2.335879 -1.238515 62.329495 13.130257 17.656951 0.857239 66.291154 -0.012636 -3.793713 5.153601 -0.181872 0.050224 -0.306365 -0.000000 0.000000 0.000000 0.000000 0.000000 0.000000 0.000000 
